<svg width="160" height="160" viewBox="0 0 160 160" fill="none" xmlns="http://www.w3.org/2000/svg"><g clip-path="url(#clip0_1709_18300)"><path d="M79.7367 85.2744C79.7367 85.2744 80.8727 90.5651 79.8191 95.8806L79.3885 97.867L79.0413 99.0454L78.5595 100.451L75.7794 108.452L73.2875 114.977C73.2875 114.977 71.1616 120.014 70.3465 121.667C69.5314 123.32 68.0831 126.049 68.0831 126.049C68.0831 126.049 66.7151 128.597 65.0694 130.778C63.4241 132.959 60.7927 134.16 60.7927 134.16C60.7927 134.16 58.2647 135.654 53.6955 135.703C49.1266 135.751 45.2167 134.385 45.2167 134.385L43.9844 133.898L41.5251 132.443L37.3456 129.636L32.6179 126.084L28.7056 122.773C28.7056 122.773 24.8069 119.323 23.0505 116.896C21.294 114.469 20.7758 113.618 20.7758 113.618C20.7758 113.618 19.1293 110.598 18.3915 108.669C17.6537 106.74 16.8573 104.557 16.8573 104.557L16.0819 101.613L15.3068 98.2403C15.3068 98.2403 13.2617 99.2226 10.5367 97.2715C7.81136 95.3203 6.71032 93.0158 6.71032 93.0158L4.65165 89.4516C4.65165 89.4516 1.71565 83.8777 0.576987 80.1286C-0.561383 76.3799 0.0889851 73.6359 1.80661 72.1254C3.52454 70.6149 5.20721 70.6235 5.20721 70.6235C5.20721 70.6235 5.92513 70.4963 6.6878 70.7023C6.6878 70.7023 5.8641 65.9808 6.28958 60.4406C6.71536 54.9002 7.47447 52.3784 7.47447 52.3784C7.47447 52.3784 8.75654 46.2691 11.9897 41.1843C15.2232 36.0996 21.3364 29.0363 33.7791 25.8493L37.9485 24.9479C37.9485 24.9479 43.2555 23.8856 47.3127 24.4873C51.3699 25.089 54.1663 25.9504 54.1663 25.9504C54.1663 25.9504 59.5204 27.6631 63.4653 30.216C67.4102 32.7689 71.0792 35.971 71.0792 35.971C71.0792 35.971 74.7533 39.0883 76.4973 42.3067C78.2413 45.5251 79.1162 48.1503 79.1162 48.1503C79.1162 48.1503 80.4845 52.0703 80.7216 56.9352C80.9589 61.8 81.2934 65.3879 81.2934 65.3879L81.7654 72.3675C81.7654 72.3675 81.9838 75.9429 81.3684 80.286C80.753 84.6291 79.7367 85.272 79.7367 85.272V85.2744Z" fill="#D6CCFF"></path><path d="M68.9318 41.2733C68.9318 41.2733 62.0495 27.5261 39.2056 29.1627C39.2056 29.1627 15.0169 30.8455 12.9084 54.833C12.9084 54.833 11.7499 66.116 18.9555 69.8535C26.1624 73.5924 34.2106 72.0781 37.9908 69.8535C41.6361 67.7077 49.0726 62.2135 58.4429 60.3832C58.9398 60.2861 59.4406 60.2135 59.9422 60.1512C61.7686 59.9216 68.6035 58.5856 70.1991 51.38C70.1991 51.38 71.3238 46.329 68.9318 41.2718V41.2733Z" fill="#746BD3"></path><path d="M67.966 115.878C67.966 115.878 63.0101 118.671 45.75 116.627C45.75 116.627 52.0881 113.502 55.9592 114.078C55.9592 114.078 57.5296 114.264 58.4709 114.929C58.4709 114.929 60.1636 113.511 62.8816 113.801C65.5992 114.09 67.966 115.879 67.966 115.879V115.878Z" fill="#ABA3FF"></path><path d="M16.9713 96.3438C16.9713 96.3438 16.2087 98.7844 13.3337 98.4549C10.4584 98.1254 7.91443 94.8134 7.91443 94.8134C7.91443 94.8134 3.98821 89.7364 0.557688 80.1299C0.557688 80.1299 -0.170016 78.054 0.0370947 75.7269C0.437984 71.204 5.8208 68.977 9.23147 71.9743C9.86554 72.5323 10.4949 73.2689 11.0901 74.2315L13.4161 78.7367" stroke="#1C1C1E" stroke-width="0.75" stroke-linecap="round" stroke-linejoin="round"></path><path d="M5.76562 77.9126L12.9087 90.0732" stroke="#1C1C1E" stroke-width="0.75" stroke-linecap="round" stroke-linejoin="round"></path><path d="M6.61599 70.6045C6.61599 70.6045 -0.517345 29.2658 41.413 24.4459C41.413 24.4459 57.3561 21.8592 73.3692 38.2066C73.3692 38.2066 79.9295 44.2051 80.6847 56.7639L81.7407 72.3699C81.7407 72.3699 82.1327 82.0199 79.7123 85.2745C79.7123 85.2745 81.2438 92.6386 78.8969 99.401C76.5499 106.163 72.0533 120.384 65.8228 129.727C59.592 139.069 46.2669 134.872 44.3268 134.075C42.3869 133.277 24.9434 122.259 20.1807 112.551C20.1807 112.551 17.0649 107.183 15.2821 98.2401" stroke="#1C1C1E" stroke-width="0.75" stroke-linecap="round" stroke-linejoin="round"></path><path d="M81.7288 75.8455C81.7288 75.8455 80.3893 74.3323 77.5555 74.9154C74.7214 75.4982 66.6758 78.2185 66.6758 78.2185" stroke="#1C1C1E" stroke-width="0.75" stroke-linecap="round" stroke-linejoin="round"></path><path d="M52.2304 78.5565L36.0487 76.5005C36.0487 76.5005 31.0464 76.0646 28.7969 78.5565" stroke="#1C1C1E" stroke-width="0.75" stroke-linecap="round" stroke-linejoin="round"></path><path d="M78.6682 84.9748C78.6682 84.9748 77.8042 81.6803 72.5974 82.0563C67.3903 82.432 65.75 86.1822 65.75 86.1822" stroke="#1C1C1E" stroke-width="0.75" stroke-linecap="round" stroke-linejoin="round"></path><path d="M50.123 87.5388C50.123 87.5388 48.419 83.146 42.4205 82.9848C42.4205 82.9848 37.0599 82.799 33.9414 85.73" stroke="#1C1C1E" stroke-width="0.75" stroke-linecap="round" stroke-linejoin="round"></path><path d="M62.957 96.1025L65.6809 104.105C66.2015 105.635 65.576 107.344 64.1591 108.122C63.9493 108.237 63.7173 108.344 63.4613 108.44" stroke="#1C1C1E" stroke-width="0.75" stroke-linecap="round" stroke-linejoin="round"></path><path d="M52.7648 99.3535L50.6549 103.381C50.6549 103.381 48.4377 107.836 53.4661 108.441" stroke="#1C1C1E" stroke-width="0.75" stroke-linecap="round" stroke-linejoin="round"></path><path d="M64.096 106.002C64.096 106.002 63.0897 107.726 61.216 108.661C60.3084 109.115 59.2323 109.082 58.3448 108.59L56.4548 107.545C55.9203 107.25 55.325 107.085 54.7143 107.065L53.4648 107.022" stroke="#1C1C1E" stroke-width="0.75" stroke-linecap="round" stroke-linejoin="round"></path><path d="M68.0612 115.883C68.0612 115.883 63.0786 118.643 45.7539 116.652C45.7539 116.652 54.3376 112.091 58.4772 114.938C58.4772 114.938 59.7755 113.718 62.2561 113.737C64.7367 113.756 68.0624 115.883 68.0624 115.883H68.0612Z" stroke="#1C1C1E" stroke-width="0.75" stroke-linecap="round" stroke-linejoin="round"></path><path d="M65.8669 119.053C65.8669 119.053 59.3843 125.476 47.5508 119.391" stroke="#1C1C1E" stroke-width="0.75" stroke-linecap="round" stroke-linejoin="round"></path><path d="M68.9358 41.2733C68.9358 41.2733 62.0534 27.5261 39.2095 29.1627C39.2095 29.1627 15.0208 30.8455 12.9123 54.833C12.9123 54.833 11.7538 66.116 18.9594 69.8535C26.1651 73.5912 34.2146 72.0781 37.9947 69.8535C41.64 67.7077 49.0765 62.2135 58.4469 60.3832C58.9437 60.2861 59.4445 60.2135 59.9461 60.1512C61.7725 59.9213 68.6074 58.5856 70.203 51.38C70.203 51.38 71.3278 46.329 68.9358 41.2718V41.2733Z" stroke="#1C1C1E" stroke-width="0.75" stroke-linecap="round" stroke-linejoin="round"></path><path d="M57.9373 36.8138C48.7403 36.8138 48.1874 27.4883 48.1874 27.4883C48.1874 27.4883 47.6345 36.8138 38.4375 36.8138C47.6345 36.8138 48.1874 46.1391 48.1874 46.1391C48.1874 46.1391 48.7403 36.8138 57.9373 36.8138Z" fill="white" stroke="#1C1C1E" stroke-width="0.75" stroke-miterlimit="10"></path><path d="M11.7461 44.7196C22.7419 49.004 24.1301 64.3477 24.1301 64.3477C24.1301 64.3477 25.5182 49.004 36.5141 44.7196C25.5182 40.4351 24.1301 25.0913 24.1301 25.0913C24.1301 25.0913 22.7419 40.4351 11.7461 44.7196Z" fill="white" stroke="#1C1C1E" stroke-width="0.75" stroke-miterlimit="10"></path><path d="M42.0318 58.7138C42.0318 58.7138 42.5225 55.7825 45.2276 55.3594C45.2276 55.3594 42.6996 54.5867 42.0318 51.9375C42.0318 51.9375 41.5411 54.8688 38.8359 55.2919C38.8359 55.2919 41.3639 56.0646 42.0318 58.7138Z" fill="white" stroke="#1C1C1E" stroke-width="0.75" stroke-miterlimit="10"></path></g><defs><clipPath id="clip0_1709_18300"><rect width="160" height="160" fill="white"></rect></clipPath></defs></svg>